<?xml version="1.0" encoding="utf-8"?>
<!-- Generator: Adobe Illustrator 22.1.0, SVG Export Plug-In . SVG Version: 6.00 Build 0)  -->
<svg version="1.1" id="Capa_1" xmlns="http://www.w3.org/2000/svg" xmlns:xlink="http://www.w3.org/1999/xlink" x="0px" y="0px"
	 viewBox="0 0 297 297" style="enable-background:new 0 0 297 297;" xml:space="preserve">
<style type="text/css">
	.st0{fill:#FFFFFF;}
</style>
<g>
	<path class="st0" d="M105.4,76.8c1.3-0.8,2.7-1.3,4.2-1.3c0.8,0,1.6,0.1,2.4,0.4c2.2,0.7,4,2.5,4.7,4.7c4.4,12.5,16.3,21,29.6,21
		c17.3,0,31.3-14.1,31.3-31.3c0-3.6,2.5-6.6,6-7.4c3.5-0.8,7,1,8.5,4.3c5,11.1,20.4,15,32,15c5.5,0,10.9-1.5,15.7-4.2
		c2.3-1.4,5.2-1.4,7.6,0c4.7,2.7,10.2,4.2,15.7,4.2c17.3,0,31.3-14.1,31.3-31.3c0-17.3-14.1-31.3-31.3-31.3
		c-7.4,0-13.7,1.2-17.4,3.3c-1.8,1.1-4.1,1.3-6.1,0.7c-2-0.7-3.7-2.1-4.6-4.1C229.8,8.1,217.1,0,204.6,0c-9,0-17.5,3.9-23.5,10.6
		c-1.4,1.6-3.5,2.6-5.7,2.6c-2.2,0-4.2-0.9-5.7-2.6C163.8,3.9,155.3,0,146.3,0c-13.3,0-25.2,8.4-29.6,21c-0.8,2.2-2.5,3.9-4.7,4.7
		c-2.2,0.7-4.6,0.4-6.6-0.9c-5.2-3.5-11.2-5.3-17.4-5.3c-17.3,0-31.3,14.1-31.3,31.3C56.7,68,70.7,82.1,88,82.1
		C94.2,82.1,100.3,80.3,105.4,76.8z"/>
	<path class="st0" d="M73.9,95.1H49.1c-25.6,0-46.4,22.2-46.4,49.6V194c0,27.3,20.8,49.6,46.4,49.6h24.8v3.8
		c0,27.3,22.2,49.6,49.6,49.6h100.3c27.3,0,49.6-22.2,49.6-49.6V96c-3.4,0.8-6.8,1.2-10.4,1.2c-6.7,0-13.4-1.5-19.4-4.3
		c-6.1,2.8-12.7,4.3-19.4,4.3c-11.4,0-24.6-2.9-34.5-10.1c-6.8,17.3-23.6,29.6-43.3,29.6c-16.7,0-32-9-40.2-23.1
		c-5.7,2.4-11.9,3.7-18.2,3.7C83.1,97.2,78.4,96.5,73.9,95.1z M73.9,222.1H49.1c-13.7,0-24.8-12.6-24.8-28v-49.4
		c0-15.5,11.1-28,24.8-28h24.8V222.1z M128.2,250.6c0,4.2-3.4,7.5-7.5,7.5s-7.5-3.4-7.5-7.5V142.8c0-4.2,3.4-7.5,7.5-7.5
		s7.5,3.4,7.5,7.5V250.6z M181.2,250.6c0,4.2-3.4,7.5-7.5,7.5s-7.5-3.4-7.5-7.5V142.8c0-4.2,3.4-7.5,7.5-7.5s7.5,3.4,7.5,7.5V250.6z
		 M234.2,250.6c0,4.2-3.4,7.5-7.5,7.5s-7.5-3.4-7.5-7.5V142.8c0-4.2,3.4-7.5,7.5-7.5s7.5,3.4,7.5,7.5V250.6z"/>
</g>
</svg>
