<?xml version="1.0" encoding="utf-8"?>
<!-- Generator: Adobe Illustrator 22.1.0, SVG Export Plug-In . SVG Version: 6.00 Build 0)  -->
<svg version="1.1" id="Capa_1" xmlns="http://www.w3.org/2000/svg" xmlns:xlink="http://www.w3.org/1999/xlink" x="0px" y="0px"
	 viewBox="0 0 297 297" style="enable-background:new 0 0 297 297;" xml:space="preserve">
<style type="text/css">
	.st0{fill:#FFFFFF;}
</style>
<g>
	<path class="st0" d="M137,62.4h22.9c1-6.7,2.5-12.2,4-15.6c4.5-10.3,4.4-12.1,4.3-15c0-0.7,0-1.4,0-2.2c0-8.5-6.3-21.1-19.8-21.1
		s-19.8,12.6-19.8,21.1c0,0.8,0,1.6,0,2.2c-0.1,2.9-0.2,4.7,4.3,15C134.4,50.2,135.9,55.7,137,62.4z"/>
	<path class="st0" d="M138.1,72.6c0.2,3.5,0.3,7.2,0.2,11h20.3c-0.1-3.8,0-7.5,0.2-11H138.1z"/>
	<path class="st0" d="M202.4,102.1h16.6c0.9-6.7,2.3-12.2,3.7-15.4c3.6-8.3,3.6-9.7,3.5-12c0-0.6,0-1.2,0-1.9
		c0-6.7-4.9-16.5-15.4-16.5c-10.5,0-15.4,9.9-15.4,16.5c0,0.7,0,1.3,0,1.9c-0.1,2.3-0.1,3.7,3.5,12
		C200.1,89.9,201.5,95.4,202.4,102.1z"/>
	<path class="st0" d="M218.3,120.6c-0.2-2.8-0.2-5.6-0.1-8.3h-15c0.1,2.7,0,5.5-0.1,8.3C203,120.6,218.3,120.6,218.3,120.6z"/>
	<path class="st0" d="M262.3,133.7c0.2,2.7,0.2,5.6,0.1,8.4h11.2c-0.1-2.9-0.1-5.7,0.1-8.4H262.3z"/>
	<path class="st0" d="M261,123.5h14c0.7-3.3,1.5-6.2,2.4-8.3c3-6.9,3-8,2.9-9.9c0-0.5,0-1,0-1.6c0-5.3-3.9-13.3-12.3-13.3
		c-8.4,0-12.3,7.9-12.3,13.3c0,0.6,0,1.1,0,1.6c-0.1,1.8-0.1,3,2.9,9.9C259.5,117.3,260.3,120.2,261,123.5z"/>
	<path class="st0" d="M251.4,175.4c3.1,9.9,4.6,20.6,4.6,32.3c0,15.9-3.8,35.5-9.4,51c1.8,5.1,3.9,9.5,6,12.7h30.9
		c7.2-11,13.6-35.8,13.6-53.3c0-17.8-4.5-32.4-13.8-44.7c-4.5-5.9-7.2-13.4-8.5-21.1h-13.3C259.9,160,255.9,169.4,251.4,175.4z"/>
	<path class="st0" d="M188.9,164.1c-3.2-13.5-8.8-25.5-17-36.3c-7.4-9.7-11.1-21.9-12.5-34h-21.8c-1.5,12.1-5.2,24.3-12.5,34
		c-8.2,10.8-13.8,22.8-17,36.3c11.6-7.7,25.5-12.2,40.4-12.2C163.4,151.9,177.3,156.4,188.9,164.1z"/>
	<path class="st0" d="M148.4,162.1c-34.8,0-63.2,28.4-63.2,63.2s28.4,63.2,63.2,63.2s63.2-28.4,63.2-63.2S183.3,162.1,148.4,162.1z
		 M148.4,196c0-5.8,4.8-10.6,10.6-10.6c5.8,0,10.6,4.8,10.6,10.6c0,5.8-4.8,10.6-10.6,10.6C153.2,206.6,148.4,201.8,148.4,196z
		 M172.3,226.5c-5.8,0-10.6-4.8-10.6-10.6s4.8-10.6,10.6-10.6s10.6,4.8,10.6,10.6S178.2,226.5,172.3,226.5z M185.6,206.6
		c-5.8,0-10.6-4.8-10.6-10.6c0-5.8,4.8-10.6,10.6-10.6s10.6,4.8,10.6,10.6C196.2,201.8,191.4,206.6,185.6,206.6z"/>
	<path class="st0" d="M219.5,130.7h-17.7c-1.2,6.6-3.3,13.1-6.6,18.9c2.8,7.7,4.7,15.9,5.9,24.6c12.8,13.2,20.7,31.2,20.7,51.1
		c0,17.5-6.1,33.5-16.4,46.1h23.9c8.6-12.9,16.4-42.7,16.4-63.8c0-21.2-5.4-38.6-16.5-53.3C224.1,147.6,221.1,139.3,219.5,130.7z"/>
	<path class="st0" d="M78.1,102.1h16.5c0.9-6.7,2.3-12.2,3.7-15.4c3.6-8.3,3.6-9.7,3.5-12c0-0.6,0-1.2,0-1.9
		c0-6.7-4.9-16.5-15.4-16.5c-10.5,0-15.4,9.9-15.4,16.5c0,0.7,0,1.3,0,1.9c-0.1,2.3-0.1,3.7,3.5,12C75.8,89.9,77.2,95.4,78.1,102.1z
		"/>
	<path class="st0" d="M94,120.6c-0.2-2.8-0.2-5.6-0.1-8.3h-15c0.1,2.7,0,5.5-0.1,8.3C78.7,120.6,94,120.6,94,120.6z"/>
	<path class="st0" d="M23.3,133.7c0.2,2.7,0.2,5.6,0.1,8.4h11.2c-0.1-2.9-0.1-5.7,0.1-8.4H23.3z"/>
	<path class="st0" d="M22.1,123.5h14c0.7-3.3,1.5-6.2,2.4-8.3c3-6.9,3-8,2.9-9.9c0-0.5,0-1,0-1.6c0-5.3-3.9-13.3-12.3-13.3
		s-12.3,7.9-12.3,13.3c0,0.6,0,1.1,0,1.6c-0.1,1.8-0.1,3,2.9,9.9C20.5,117.3,21.4,120.2,22.1,123.5z"/>
	<path class="st0" d="M45.6,175.4c-4.5-5.9-8.6-15.4-9.9-23.1H22.4c-1.4,7.7-4,15.2-8.5,21.1C4.5,185.7,0,200.3,0,218.1
		c0,17.6,6.4,42.3,13.6,53.3h30.9c2.1-3.2,4.1-7.7,6-12.7c-5.6-15.5-9.4-35.1-9.4-51C41,196,42.6,185.2,45.6,175.4z"/>
	<path class="st0" d="M95.9,174.3c1.1-8.7,3.1-16.9,5.9-24.6c-3.3-5.8-5.4-12.3-6.6-18.9H77.5c-1.6,8.5-4.6,16.8-9.8,23.7
		c-11.1,14.7-16.5,32.1-16.5,53.3c0,21.1,7.8,50.9,16.4,63.8h23.9c-10.2-12.6-16.4-28.7-16.4-46.1C75.2,205.5,83.1,187.5,95.9,174.3
		z"/>
</g>
</svg>
