<?xml version="1.0" encoding="utf-8"?>
<!-- Generator: Adobe Illustrator 22.1.0, SVG Export Plug-In . SVG Version: 6.00 Build 0)  -->
<svg version="1.1" id="Capa_1" xmlns="http://www.w3.org/2000/svg" xmlns:xlink="http://www.w3.org/1999/xlink" x="0px" y="0px"
	 viewBox="0 0 305.9 305.9" style="enable-background:new 0 0 305.9 305.9;" xml:space="preserve">
<style type="text/css">
	.st0{fill:#FFFFFF;}
</style>
<g>
	<g>
		<path class="st0" d="M35,160.9c0,20.1,5.1,39.1,14,55.7l93.4-53.9L47.6,108C39.5,123.9,35,141.9,35,160.9z M64.6,190.1
			c-3,1.4-6.1,2.3-9.3,3.1c-1.4,0.4-5.2,1-5.8-1.1c-0.6-2.1,3-3.5,4.5-3.9c2.3-0.6,4.5-1.2,6.6-2.2c1.7-0.8,5.2-1.5,6.8,0
			C69,187.7,65.7,189.5,64.6,190.1z M105.1,153.5c4.4,0,8,3.6,8,8s-3.6,8-8,8c-4.4,0-8-3.6-8-8C97,157.1,100.6,153.5,105.1,153.5z
			 M82.9,165.5c0,6.7-5.4,12-12,12c-6.7,0-12-5.4-12-12s5.4-12,12-12C77.6,153.5,82.9,158.9,82.9,165.5z M58.8,124c4.4,0,8,3.6,8,8
			c0,4.4-3.6,8-8,8c-4.4,0-8-3.6-8-8C50.8,127.6,54.4,124,58.8,124z M43.9,158.7c-6.9,0,0.9-5,4.2-5C55,153.7,47.2,158.7,43.9,158.7
			z"/>
		<path class="st0" d="M147.7,37.1V15.9C97.7,17.7,54.2,44.8,29.4,84.8l18.4,10.6C68.8,61.8,105.6,38.9,147.7,37.1z"/>
		<path class="st0" d="M268.7,79.5l18.4-10.6C262.4,28.9,218.8,1.8,168.9,0v21.2C211,23,247.7,45.9,268.7,79.5z"/>
		<path class="st0" d="M275.2,239l-18.4-10.6c-21.2,32.6-57.3,54.6-98.6,56.3v21.2C207.4,304.2,250.3,277.9,275.2,239z"/>
		<path class="st0" d="M263.4,104.7c8.6,16.9,13.6,36,13.6,56.2c0,21.1-5.3,40.9-14.6,58.3l18.4,10.6c11.1-20.5,17.5-44,17.5-69
			c0-24.1-5.9-46.8-16.4-66.9L263.4,104.7z"/>
		<path class="st0" d="M43.7,219.3C34.3,201.9,29,182,29,160.9c0-20.2,4.9-39.4,13.6-56.3L24.2,94.1c-10.4,20-16.4,42.8-16.4,66.9
			c0,24.9,6.3,48.4,17.5,69L43.7,219.3z"/>
		<path class="st0" d="M147.7,305.9v-21.2c-41.3-1.7-77.4-23.8-98.6-56.3L30.7,239C55.6,277.9,98.6,304.2,147.7,305.9z"/>
		<path class="st0" d="M147.7,43.1c-40.1,1.8-75,23.6-94.9,55.6l94.9,54.8V43.1z M89.2,102c-6.6,0-12-5.4-12-12c0-6.7,5.4-12,12-12
			c6.7,0,12,5.4,12,12C101.2,96.6,95.8,102,89.2,102z M125.1,124c-4.4,0-8-3.6-8-8s3.6-8,8-8c4.4,0,8,3.6,8,8
			C133.1,120.4,129.5,124,125.1,124z M124.8,94.2c-1.5-1.9-3.3-2.9-5.6-3.5c-2.3-0.6-2.8-3.1-1.3-4.8c1.8-2,4.8-2.6,7.2-1.9
			c3.6,1,6.7,2.9,9,5.8C137.4,93.7,127.6,97.7,124.8,94.2z M128.8,75.1c-4.4,0-8-3.6-8-8c0-4.4,3.6-8,8-8c4.4,0,8,3.6,8,8
			C136.9,71.5,133.3,75.1,128.8,75.1z"/>
		<path class="st0" d="M270.9,160.9c0-19.1-4.5-37-12.6-53l-94.8,54.7l93.4,53.9C265.9,200,270.9,181.1,270.9,160.9z M254.9,126.7
			c6.9,0-1.2,4.6-4.3,4.6C243.8,131.4,251.9,126.7,254.9,126.7z M204.9,170.3c-4.4,0-8-3.6-8-8c0-4.4,3.6-8,8-8c4.4,0,8,3.6,8,8
			C212.9,166.7,209.3,170.3,204.9,170.3z M226.9,154.2c5,0-4.5,4.1-6.7,4.1C215.3,158.3,224.8,154.2,226.9,154.2z M222.3,180.5
			c-6.9,0-0.1-6.1,3.9-6.1C233.2,174.4,226.4,180.5,222.3,180.5z M243.4,200.6c-4.4,0-8-3.6-8-8c0-4.4,3.6-8,8-8c4.4,0,8,3.6,8,8
			C251.5,197,247.9,200.6,243.4,200.6z M247.5,168.9c-6.6,0-12-5.4-12-12c0-6.7,5.4-12,12-12c6.7,0,12,5.4,12,12
			C259.5,163.5,254.1,168.9,247.5,168.9z"/>
		<path class="st0" d="M147.7,278.8V171.9l-93.3,53.9C74.6,256.4,108.7,277,147.7,278.8z M130.8,270.2c-6.9,0,0.6-5.3,4.1-5.3
			C141.8,264.9,134.3,270.2,130.8,270.2z M128.8,200.6c4.4,0,8,3.6,8,8c0,4.4-3.6,8-8,8c-4.4,0-8-3.6-8-8
			C120.8,204.2,124.4,200.6,128.8,200.6z M108.2,219.3c6.9,0,0.3,6.3-3.8,6.3C97.4,225.7,104.1,219.3,108.2,219.3z M113.1,229.9
			c6.7,0,12,5.4,12,12c0,6.7-5.4,12-12,12c-6.6,0-12-5.4-12-12C101,235.3,106.4,229.9,113.1,229.9z M78.9,220.6c4.4,0,8,3.6,8,8
			c0,4.4-3.6,8-8,8c-4.4,0-8-3.6-8-8C70.9,224.2,74.5,220.6,78.9,220.6z"/>
		<path class="st0" d="M251.5,225.7l-93.3-53.9v106.9C197.3,277,231.4,256.4,251.5,225.7z M175.5,262c-4.4,0-8-3.6-8-8
			c0-4.4,3.6-8,8-8c4.4,0,8,3.6,8,8C183.5,258.4,179.9,262,175.5,262z M180.9,228.7c-6.6,0-12-5.4-12-12c0-6.6,5.4-12,12-12
			c6.7,0,12,5.4,12,12S187.6,228.7,180.9,228.7z M193.1,246.4c-5,0,4.6-4.1,6.7-4.1C204.8,242.3,195.2,246.4,193.1,246.4z
			 M223.4,237.9c-4.4,0-8-3.6-8-8c0-4.4,3.6-8,8-8c4.4,0,8,3.6,8,8C231.4,234.3,227.8,237.9,223.4,237.9z"/>
		<path class="st0" d="M168.9,27.2v110.4l94.9-54.8C243.9,50.7,209,28.9,168.9,27.2z M199.6,43.1c4.4,0,8,3.6,8,8s-3.6,8-8,8
			c-4.4,0-8-3.6-8-8C191.6,46.7,195.2,43.1,199.6,43.1z M182.4,35.6c6.9,0,0.6,6.6-3.8,6.6C171.7,42.2,178,35.6,182.4,35.6z
			 M187.6,110.3c-6.6,0-12-5.4-12-12s5.4-12,12-12c6.7,0,12,5.4,12,12S194.2,110.3,187.6,110.3z M199.9,74.6c-2,1.6-5.2,2-7.4,0.5
			c-2.3-1.6-5.1-1.9-7.7-2.5c-2.2-0.4-4.3-2.2-3.2-4.7c1-2.3,4.2-3.7,6.6-3.2c4.3,0.8,8.5,1.7,12.1,4.2
			C202.5,70.4,201.6,73.2,199.9,74.6z M206.5,93.3c-6.9,0-0.8-6.8,3.7-6.8C217.2,86.5,211,93.3,206.5,93.3z M223.4,82.2
			c-4.4,0-8-3.6-8-8s3.6-8,8-8c4.4,0,8,3.6,8,8S227.8,82.2,223.4,82.2z M237.5,78.7c-5,0,4.6-4.1,6.7-4.1
			C249.2,74.6,239.6,78.7,237.5,78.7z"/>
	</g>
</g>
</svg>
